<svg width="1419" height="1419" viewBox="0 0 1419 1419" fill="none" xmlns="http://www.w3.org/2000/svg">
<mask id="mask0" mask-type="alpha" maskUnits="userSpaceOnUse" x="0" y="0" width="1419" height="1419">
<rect x="709.41" width="1003.26" height="1003.26" rx="70" transform="rotate(45 709.41 0)" fill="#FAFAFA"/>
</mask>
<g mask="url(#mask0)">
<rect x="709.41" width="1003.26" height="1003.26" rx="70" transform="rotate(45 709.41 0)" fill="url(#paint0_linear)"/>
<rect opacity="0.5" x="731.41" y="1569.82" width="1003.26" height="1003.26" rx="70" transform="rotate(-135 731.41 1569.82)" fill="url(#paint1_linear)"/>
<rect opacity="0.5" x="776.41" y="1267.82" width="1003.26" height="1003.26" rx="70" transform="rotate(-135 776.41 1267.82)" fill="url(#paint2_linear)"/>
<rect opacity="0.5" x="587.41" y="990.821" width="1003.26" height="1003.26" rx="70" transform="rotate(-135 587.41 990.821)" fill="url(#paint3_linear)"/>
</g>
<defs>
<linearGradient id="paint0_linear" x1="709.41" y1="501.629" x2="1712.67" y2="501.629" gradientUnits="userSpaceOnUse">
<stop stop-color="#A1C616"/>
<stop offset="1" stop-color="#B2DF00"/>
</linearGradient>
<linearGradient id="paint1_linear" x1="731.41" y1="2071.45" x2="1734.67" y2="2071.45" gradientUnits="userSpaceOnUse">
<stop stop-color="#A1C616"/>
<stop offset="1" stop-color="#B2DF00"/>
</linearGradient>
<linearGradient id="paint2_linear" x1="776.41" y1="1769.45" x2="1779.67" y2="1769.45" gradientUnits="userSpaceOnUse">
<stop stop-color="#A1C616"/>
<stop offset="1" stop-color="#B2DF00"/>
</linearGradient>
<linearGradient id="paint3_linear" x1="587.41" y1="1492.45" x2="1590.67" y2="1492.45" gradientUnits="userSpaceOnUse">
<stop stop-color="#A1C616"/>
<stop offset="1" stop-color="#B2DF00"/>
</linearGradient>
</defs>
</svg>
