<svg width="46" height="28" viewBox="0 0 46 28" fill="none" xmlns="http://www.w3.org/2000/svg">
<path d="M12.962 9.99328C12.9502 10.4532 13.0071 10.9122 13.1308 11.3553C13.2657 11.7339 13.4281 12.1021 13.617 12.4569C13.685 12.5617 13.7221 12.6835 13.724 12.8083C13.7148 12.9022 13.6837 12.9926 13.6333 13.0724C13.5829 13.1521 13.5145 13.2189 13.4336 13.2675L12.4696 13.9099C12.3535 13.9939 12.2154 14.0423 12.0723 14.0488C11.8979 14.0368 11.7343 13.9603 11.6132 13.8342C11.4068 13.6129 11.2224 13.3722 11.0624 13.1154C10.9089 12.8549 10.7568 12.5638 10.588 12.2124C10.0487 12.8838 9.3631 13.4231 8.58353 13.7891C7.80397 14.155 6.95105 14.3379 6.08998 14.3239C5.53233 14.3533 4.97443 14.271 4.44903 14.0818C3.92363 13.8927 3.44134 13.6004 3.03043 13.2223C2.25907 12.3795 1.85332 11.2653 1.90214 10.1238C1.95096 8.9824 2.45038 7.90686 3.29089 7.13302C4.35404 6.29172 5.6877 5.8674 7.04153 5.93974C7.58427 5.94403 8.12611 5.98489 8.66336 6.06201C9.22943 6.13841 9.81076 6.26064 10.4227 6.39886V5.28197C10.5109 4.4035 10.2527 3.52534 9.70313 2.83437C8.99164 2.29136 8.10001 2.03973 7.20962 2.13073C6.65309 2.13064 6.09858 2.19734 5.55794 2.32939C4.99551 2.46338 4.4433 2.63725 3.90555 2.84963C3.73159 2.92752 3.55271 2.99389 3.37004 3.04829C3.29099 3.07466 3.20877 3.09032 3.12556 3.09483C2.91094 3.09483 2.80397 2.94126 2.80397 2.62037V1.87095C2.78738 1.68587 2.82451 1.49994 2.91092 1.33544C3.02628 1.19581 3.17317 1.08558 3.33948 1.01385C3.95298 0.710201 4.59985 0.479223 5.26692 0.325553C6.04646 0.125629 6.84869 0.0280548 7.65343 0.035246C9.47389 0.035246 10.8054 0.447774 11.6618 1.27431C12.1163 1.78364 12.4631 2.37966 12.6813 3.0265C12.8995 3.67333 12.9846 4.35764 12.9314 5.03821V9.99463L12.962 9.99328ZM6.75122 12.3186C7.2879 12.3119 7.81992 12.2182 8.3265 12.0409C8.88828 11.8469 9.38944 11.5093 9.7802 11.0615C10.0267 10.7797 10.2047 10.4447 10.3005 10.0828C10.4056 9.64689 10.4572 9.19976 10.454 8.75133V8.10891C9.98986 7.99619 9.5198 7.90945 9.04604 7.84912C8.56894 7.78859 8.08853 7.75792 7.6076 7.75739C6.80003 7.69363 5.99513 7.90977 5.32805 8.36937C4.94623 8.64805 4.66501 9.04292 4.52661 9.49491C4.38821 9.94689 4.40006 10.4316 4.56039 10.8763C4.72072 11.321 5.0209 11.7017 5.41588 11.9613C5.81087 12.221 6.27942 12.3457 6.75122 12.3166V12.3186ZM19.036 13.971C18.8303 13.9923 18.6239 13.938 18.4553 13.8182C18.295 13.653 18.1837 13.4464 18.1338 13.2216L14.538 1.39242C14.4681 1.19453 14.4215 0.989189 14.3991 0.780515C14.3916 0.729854 14.3958 0.678129 14.4113 0.629342C14.4269 0.580554 14.4535 0.535969 14.489 0.499026C14.5244 0.462082 14.5679 0.43374 14.616 0.41619C14.6641 0.398639 14.7156 0.392362 14.7665 0.397791H16.2682C16.4792 0.372159 16.6921 0.426673 16.8648 0.550575C17.0191 0.717925 17.1247 0.924225 17.1704 1.14721L19.7403 11.2754L22.1268 1.14721C22.1583 0.922716 22.26 0.713899 22.4172 0.550575C22.601 0.438301 22.8147 0.384998 23.0298 0.397791H24.2557C24.4713 0.375122 24.688 0.429211 24.8676 0.550575C25.0277 0.711949 25.13 0.921701 25.1586 1.14721L27.5757 11.3977L30.2227 1.14721C30.2713 0.925251 30.3766 0.719671 30.5283 0.550575C30.7062 0.438108 30.915 0.384653 31.125 0.397791H32.5481C32.6 0.390803 32.6528 0.395867 32.7024 0.412629C32.7521 0.42939 32.7972 0.457414 32.8342 0.494447C32.8712 0.53148 32.8992 0.576587 32.916 0.626205C32.9327 0.675822 32.9378 0.728611 32.9308 0.780515C32.9273 0.862703 32.917 0.944417 32.9002 1.02495C32.8762 1.15549 32.8404 1.28359 32.7933 1.40768L29.1065 13.2334C29.0604 13.4596 28.9485 13.6671 28.7849 13.83C28.6121 13.941 28.4087 13.9948 28.2036 13.9836H26.8881C26.6724 14.006 26.4557 13.9516 26.2762 13.83C26.1163 13.6623 26.0143 13.4479 25.9851 13.2181L23.6139 3.3497L21.2579 13.2029C21.2222 13.4305 21.1213 13.643 20.9676 13.8148C20.7869 13.9343 20.5707 13.9882 20.355 13.9675L19.036 13.971ZM38.6923 14.3843C37.8988 14.3843 37.108 14.2911 36.3363 14.1065C35.725 13.9822 35.1332 13.7761 34.5769 13.4938C34.3801 13.4011 34.2152 13.252 34.1033 13.0653C34.0435 12.9303 34.012 12.7844 34.0109 12.6367V11.8568C34.0109 11.5352 34.1331 11.3824 34.363 11.3824C34.4575 11.3825 34.5514 11.3979 34.6409 11.4282C34.7332 11.4588 34.87 11.5199 35.0235 11.5817C35.564 11.8193 36.1282 11.9988 36.7065 12.1173C37.3057 12.239 37.9155 12.3007 38.5269 12.3013C39.3042 12.347 40.0786 12.1719 40.7607 11.7963C41.0099 11.6459 41.2149 11.4322 41.3547 11.1768C41.4945 10.9215 41.5642 10.6336 41.5566 10.3426C41.5616 10.1454 41.5273 9.94915 41.4558 9.76529C41.3842 9.58143 41.2769 9.4136 41.1399 9.27158C40.6926 8.89186 40.1642 8.61978 39.5952 8.47629L37.3767 7.78799C36.4157 7.54106 35.5584 6.99444 34.9291 6.22734C34.4372 5.59212 34.1686 4.81225 34.1651 4.00883C34.1527 3.41652 34.2949 2.83124 34.5777 2.31065C34.851 1.81858 35.2266 1.39081 35.6792 1.05624C36.1559 0.695494 36.6952 0.425867 37.2698 0.260946C37.8961 0.0803868 38.5455 -0.00736736 39.1972 0.000483743C39.5399 -0.00192815 39.8824 0.0184998 40.2224 0.0616145C40.5739 0.107456 40.8954 0.168623 41.217 0.229745C41.5226 0.306148 41.8136 0.383195 42.0887 0.474183C42.312 0.543992 42.5274 0.63713 42.7312 0.752027C42.9113 0.843032 43.0683 0.973936 43.1903 1.13475C43.2901 1.28356 43.3388 1.46073 43.3292 1.63965V2.35855C43.3292 2.68014 43.207 2.84819 42.9777 2.84819C42.7739 2.82501 42.5765 2.76258 42.3964 2.66421C41.4718 2.25566 40.4698 2.05212 39.4591 2.06757C38.7549 2.02615 38.0524 2.17409 37.4247 2.49608C37.1912 2.6349 37.0004 2.83541 36.8735 3.07559C36.7465 3.31576 36.6883 3.58626 36.7051 3.8574C36.7009 4.06057 36.7397 4.26236 36.8188 4.44955C36.8979 4.63673 37.0156 4.80517 37.1642 4.94376C37.6608 5.33802 38.2339 5.62463 38.8471 5.78552L41.0197 6.4739C41.9418 6.70914 42.7695 7.22165 43.391 7.94222C43.8581 8.55766 44.1058 9.31171 44.0946 10.0843C44.1023 10.6988 43.966 11.3065 43.6966 11.8588C43.4252 12.3825 43.0443 12.8415 42.5798 13.2049C42.0748 13.5981 41.4979 13.889 40.8815 14.0613C40.1733 14.2787 39.4359 14.3864 38.695 14.3808L38.6923 14.3843Z" fill="#A1C616"/>
<path d="M41.5872 21.8196C36.5544 25.5369 29.2406 27.5109 22.9534 27.5109C14.5542 27.5543 6.44128 24.4606 0.203516 18.8358C-0.270179 18.4072 0.157691 17.8259 0.723763 18.1627C6.76635 21.6477 13.5337 23.6864 20.4958 24.119C27.4578 24.5516 34.4255 23.3664 40.8531 20.6563C41.6942 20.2743 42.4131 21.2076 41.5872 21.8196ZM43.6834 19.4332C43.041 18.6073 39.4306 19.0351 37.7935 19.2344C37.3073 19.2956 37.2274 18.867 37.6713 18.5461C40.5475 16.5263 45.2747 17.1076 45.8255 17.7821C46.377 18.4704 45.6727 23.1998 42.9778 25.462C42.5652 25.8141 42.1672 25.6308 42.3526 25.1717C42.9652 23.6582 44.3252 20.2437 43.6834 19.4332Z" fill="#A1C616"/>
</svg>
