<svg width="126" height="16" viewBox="0 0 126 16" fill="none" xmlns="http://www.w3.org/2000/svg">
<path fill-rule="evenodd" clip-rule="evenodd" d="M90.8045 0.188721H88.2251V15.9999H100.341L101.984 13.4175H90.8045V0.188721Z" fill="#A1C616"/>
<path fill-rule="evenodd" clip-rule="evenodd" d="M55.4335 0.977709L45.9712 16H49.0961L51.9516 11.4623H58.0466L59.6494 8.87994H53.5545L56.8747 3.67472L64.6533 16H67.7782L58.2486 0.937253C57.6627 -0.040412 56.0935 -0.0404119 55.4335 0.977709Z" fill="#A1C616"/>
<path fill-rule="evenodd" clip-rule="evenodd" d="M73.7653 2.77111H84.6149L86.2178 0.188721L73.6912 0.195463C69.3338 0.195463 66.4648 3.73529 66.4648 8.0977C66.4648 12.4601 69.3338 15.9999 73.6912 15.9999L84.2849 15.9864L85.9417 13.4243H73.7653C70.8289 13.4243 69.1116 11.0374 69.1116 8.0977C69.1049 5.15796 70.8289 2.77111 73.7653 2.77111Z" fill="#A1C616"/>
<path fill-rule="evenodd" clip-rule="evenodd" d="M18.406 0.195557H7.22636C2.86899 0.195557 0 3.73538 0 8.09779C0 12.4602 2.86899 16 7.22636 16H18.406C22.7634 16 25.6324 12.4602 25.6324 8.09779C25.6324 3.73538 22.7634 0.195557 18.406 0.195557ZM18.406 13.4244H7.22636C4.29002 13.4244 2.57267 11.0375 2.57267 8.09779C2.57267 5.15805 4.29002 2.7712 7.22636 2.7712H18.406C21.3424 2.7712 23.0597 5.15805 23.0597 8.09779C23.0664 11.0375 21.3424 13.4244 18.406 13.4244Z" fill="#A1C616"/>
<path fill-rule="evenodd" clip-rule="evenodd" d="M109.359 2.77111H120.208L121.811 0.188721L109.284 0.195463C104.927 0.195463 102.058 3.73529 102.058 8.0977C102.058 12.4601 104.927 15.9999 109.284 15.9999L119.878 15.9864L121.535 13.4243H109.359C106.853 13.4243 105.244 11.6847 104.826 9.35181H118.491L120.134 6.76942H104.833C105.271 4.47696 106.887 2.77111 109.359 2.77111Z" fill="#A1C616"/>
<path fill-rule="evenodd" clip-rule="evenodd" d="M40.3341 9.58105C42.9202 9.58105 45.0214 7.48413 45.0214 4.88826C45.0214 2.29913 42.9269 0.195463 40.3341 0.195463L27.1812 0.188721V15.9999H30.0771V2.77111H40.3408C41.5059 2.77111 42.4555 3.7218 42.4555 4.88826C42.4555 6.05471 41.5059 7.00541 40.3408 7.00541H32.111L41.3914 15.9864H45.1225L38.4753 9.58779L40.3341 9.58105Z" fill="#A1C616"/>
<path fill-rule="evenodd" clip-rule="evenodd" d="M124.572 0C123.798 0 123.138 0.600084 123.138 1.40919C123.138 2.22503 123.791 2.82512 124.572 2.82512C125.34 2.82512 125.993 2.22503 125.993 1.40919C126 0.600084 125.34 0 124.572 0ZM124.572 2.58913C123.926 2.58913 123.421 2.09018 123.421 1.40919C123.421 0.741677 123.926 0.235988 124.572 0.235988C125.212 0.235988 125.71 0.741677 125.71 1.40919C125.717 2.08344 125.212 2.58913 124.572 2.58913Z" fill="#A1C616"/>
<path fill-rule="evenodd" clip-rule="evenodd" d="M124.801 1.51034C125.037 1.48337 125.226 1.35526 125.226 1.06533C125.226 0.741691 125.037 0.600098 124.653 0.600098H124.034V2.22504H124.283V1.51708H124.566L124.997 2.22504H125.266L124.801 1.51034ZM124.276 1.30806V0.809116H124.613C124.781 0.809116 124.97 0.849571 124.97 1.0451C124.97 1.29458 124.781 1.30806 124.572 1.30806H124.276Z" fill="#A1C616"/>
</svg>
