<svg width="132" height="24" viewBox="0 0 132 24" fill="none" xmlns="http://www.w3.org/2000/svg">
<path d="M95.4879 5.98208H92.406C92.0832 5.91658 91.7492 5.93201 91.4338 6.02702C91.1184 6.12204 90.8314 6.29368 90.5985 6.52659C90.3656 6.75951 90.194 7.04649 90.099 7.36188C90.0039 7.67727 89.9885 8.01128 90.054 8.33409V18.8435H88.2405V8.15322C88.2275 7.33668 88.4141 6.52929 88.7839 5.8012C89.2031 5.30558 89.7334 4.916 90.3317 4.66414C90.93 4.41229 91.5793 4.30529 92.2267 4.35189H95.4879V5.98208ZM83.7109 17.2166C83.0595 17.2745 82.4107 17.0797 81.899 16.6723C81.6972 16.4368 81.545 16.1631 81.4515 15.8673C81.3579 15.5716 81.3251 15.26 81.3548 14.9513V5.98208H85.1602V4.35189H81.3548V0.00317383H79.543V14.9513C79.5303 15.7679 79.7171 16.5753 80.0872 17.3033C80.4744 17.8125 80.9862 18.2134 81.5733 18.4674C82.1604 18.7214 82.803 18.8199 83.4392 18.7535H86.7912V17.1224C86.7904 17.2165 83.7101 17.2166 83.7101 17.2166H83.7109ZM36.0586 0.00317383V4.35189H32.2548C30.5719 4.24357 28.9133 4.79649 27.6319 5.89287C26.7604 6.79099 26.2731 7.99343 26.2734 9.24492V13.8678C26.2731 15.1193 26.7604 16.3216 27.6319 17.2197C28.4478 18.0348 29.8971 18.7607 32.2548 18.7607H33.9758C35.0626 18.7607 36.6028 18.489 37.3278 17.3106C37.7393 16.5983 37.9285 15.7792 37.8712 14.9586V0.0104011L36.0586 0.00317383ZM35.5144 16.6723C35.0027 17.0797 34.3539 17.2745 33.7025 17.2166H32.0723C31.5326 17.2607 30.9895 17.1951 30.4757 17.0238C29.9619 16.8525 29.4882 16.579 29.0829 16.2198C28.5197 15.6337 28.1965 14.8579 28.1769 14.0454V9.24403C28.1966 8.4315 28.5198 7.65586 29.0829 7.06972C29.911 6.36003 30.984 6.00254 32.0723 6.07375H36.0586V14.9522C36.0881 15.2608 36.055 15.5722 35.9614 15.8677C35.8677 16.1633 35.7154 16.437 35.5136 16.6723H35.5144ZM111.977 6.97884C112.805 6.26862 113.878 5.91082 114.967 5.98208H119.315V4.35189H115.148C113.465 4.24357 111.807 4.79649 110.525 5.89287C109.654 6.79099 109.166 7.99343 109.167 9.24492V13.8678C109.167 15.1193 109.654 16.3216 110.525 17.2197C111.341 18.0348 112.791 18.7607 115.148 18.7607H119.315V17.1224H114.967C114.427 17.1665 113.884 17.101 113.37 16.9298C112.856 16.7587 112.382 16.4855 111.977 16.1265C111.414 15.5404 111.091 14.7647 111.071 13.9521V9.15077C111.06 8.7451 111.136 8.34178 111.292 7.96739C111.449 7.59299 111.683 7.25605 111.979 6.97884H111.977ZM77.6411 9.24324C77.6414 7.9916 77.1538 6.78918 76.2818 5.89129C75.4667 5.07539 74.1074 4.35031 71.7522 4.35031H67.6759V5.98049H71.9339C72.4737 5.93639 73.017 6.00195 73.5309 6.17325C74.0447 6.34455 74.5187 6.61804 74.9241 6.97726C75.487 7.56342 75.81 8.33911 75.8293 9.15156V10.601H70.0312C68.9444 10.601 67.4042 10.8727 66.6792 12.0503C66.2677 12.7626 66.0785 13.5816 66.1358 14.4022V14.9456C66.1228 15.7622 66.3093 16.5695 66.6792 17.2976C67.0667 17.8064 67.5786 18.207 68.1656 18.4609C68.7526 18.7149 69.395 18.8136 70.0312 18.7477H73.7457C74.8325 18.7477 76.3727 18.4761 77.0977 17.2976C77.5087 16.5851 77.6979 15.7662 77.6411 14.9456V9.24324ZM75.2891 16.6723C74.7774 17.0796 74.1287 17.2745 73.4772 17.2166H70.3069C69.6555 17.2745 69.0067 17.0797 68.4951 16.6723C68.2935 16.4367 68.1414 16.1629 68.0481 15.8671C67.9547 15.5714 67.9219 15.2599 67.9517 14.9513V14.5888C67.9135 14.2798 67.9423 13.9661 68.0361 13.6692C68.1298 13.3722 68.2864 13.0989 68.4951 12.8677C69.0266 12.5 69.6607 12.3096 70.3069 12.3235H75.8325V15.0414C75.8546 15.336 75.8176 15.6321 75.7236 15.9122C75.6296 16.1923 75.4805 16.4507 75.285 16.6723H75.2891ZM107.812 9.24324C107.812 7.9916 107.324 6.78918 106.452 5.89129C105.637 5.07539 104.187 4.35031 101.829 4.35031H97.7531V5.98049H102.011C102.551 5.93639 103.094 6.00195 103.608 6.17325C104.122 6.34455 104.596 6.61804 105.001 6.97726C105.564 7.56334 105.888 8.33902 105.907 9.15156V10.601H100.109C99.0224 10.601 97.4822 10.8727 96.7572 12.0503C96.3462 12.7628 96.157 13.5816 96.2138 14.4022V14.9456C96.2008 15.7622 96.3874 16.5695 96.7572 17.2976C97.1447 17.8064 97.6566 18.207 98.2436 18.4609C98.8306 18.7149 99.473 18.8136 100.109 18.7477H103.824C104.911 18.7477 106.451 18.4761 107.176 17.2976C107.587 16.5853 107.776 15.7663 107.719 14.9456C107.809 15.0421 107.809 10.24 107.809 9.24324H107.812ZM105.366 16.6723C104.854 17.0797 104.205 17.2745 103.554 17.2166H100.382C99.7303 17.2743 99.0816 17.0794 98.5698 16.6723C98.3682 16.4367 98.2162 16.1629 98.1228 15.8671C98.0295 15.5714 97.9967 15.2599 98.0264 14.9513V14.5888C97.9883 14.2798 98.0171 13.9661 98.1108 13.6692C98.2046 13.3722 98.3611 13.0989 98.5698 12.8677C99.0816 12.4607 99.7303 12.2658 100.382 12.3235H105.908V15.0414C105.931 15.3358 105.894 15.6318 105.8 15.9119C105.707 16.192 105.558 16.4505 105.363 16.6723H105.366ZM52.3685 4.35189H50.4625L45.8396 16.4007L41.2168 4.35189H39.3189L44.9353 18.8467L43.2143 23.1955H45.117L52.3685 4.35189ZM64.6889 9.24403C64.6893 7.99254 64.202 6.7902 63.3304 5.89208C62.7466 5.35569 62.0605 4.9427 61.3132 4.67791C60.566 4.41311 59.7729 4.30195 58.9816 4.3511H58.8C58.0087 4.30195 57.2156 4.41311 56.4684 4.67791C55.7211 4.9427 55.035 5.35569 54.4512 5.89208C53.5796 6.7902 53.0923 7.99254 53.0927 9.24403V18.8467H54.9046V9.24403C54.8931 8.83813 54.968 8.43449 55.1241 8.05966C55.2803 7.68483 55.5142 7.34742 55.8105 7.06972C56.7073 6.42137 57.7858 6.07227 58.8924 6.07227C59.9991 6.07227 61.0775 6.42137 61.9744 7.06972C62.5374 7.65586 62.8606 8.4315 62.8803 9.24403V18.8467H64.6921L64.6889 9.24403ZM130.642 5.89208C130.058 5.35565 129.372 4.9426 128.625 4.67781C127.878 4.41301 127.085 4.30191 126.293 4.3511H126.113C125.321 4.30191 124.528 4.41301 123.781 4.67781C123.034 4.9426 122.348 5.35565 121.764 5.89208C120.892 6.78997 120.404 7.99239 120.405 9.24403V13.867C120.404 15.1186 120.892 16.321 121.764 17.2189C122.348 17.7553 123.034 18.1682 123.781 18.433C124.528 18.6978 125.321 18.809 126.113 18.7599H130.37V17.1224H126.203C125.087 17.191 123.986 16.8353 123.121 16.1265C122.558 15.5404 122.235 14.7647 122.216 13.9521V12.2311H132V9.24086C131.907 9.06244 131.907 7.15973 130.639 5.89208H130.642ZM122.217 10.6026V9.15325C122.206 8.74735 122.281 8.3436 122.437 7.96877C122.593 7.59394 122.827 7.25654 123.123 6.97884C124.02 6.32989 125.098 5.98049 126.205 5.98049C127.312 5.98049 128.39 6.32989 129.287 6.97884C129.85 7.56493 130.173 8.3407 130.193 9.15325V10.6026H122.217Z" fill="#A1C616"/>
<path d="M7.70079 1.99661C7.42909 3.53757 7.06655 5.88958 6.88488 8.24806C6.6658 10.5662 6.60538 12.8967 6.70403 15.223L0.815093 20.8394C0.815093 20.8394 0.361739 17.7574 0.180879 14.2254C0.090854 12.051 0 10.1491 0 8.97069V8.78991C0.0932797 8.17425 0.378534 7.60374 0.815093 7.15972C1.72102 6.25299 7.79081 1.45321 7.70079 1.99661Z" fill="#A1C616"/>
<path d="M7.70079 1.99578C7.42909 3.53675 7.06655 5.88875 6.88488 8.24724C6.88488 8.24724 0.361721 7.43216 0 9.06233C0.0828361 8.37164 0.403071 7.73116 0.905929 7.25048C1.72102 6.43539 7.79081 1.4532 7.70079 1.99578Z" fill="#A1C616"/>
<path d="M0.000959186 8.60891V8.97146C0.10008 8.67393 0.253825 8.39751 0.45432 8.15637C0.649386 7.93836 0.886354 7.76192 1.1511 7.63749C1.41585 7.51306 1.70296 7.44323 1.99528 7.43216C3.62546 7.25049 5.88824 6.97958 8.33675 6.88794C10.6329 6.76892 12.9349 6.82941 15.2216 7.06882L21.1105 1.45237C21.1105 1.45237 18.0286 0.908139 14.4966 0.456393C12.2322 0.184697 10.1478 0.00384971 9.06265 0.00384971C8.76124 -0.0144738 8.45942 0.0327689 8.178 0.142256C7.89658 0.251743 7.64224 0.420861 7.43246 0.638064C6.52653 1.45315 2.35864 5.43941 0.637624 7.0704C0.428647 7.26717 0.263821 7.50612 0.154068 7.77134C0.0443142 8.03657 -0.00786802 8.32201 0.000959186 8.60891Z" fill="#A1C616"/>
<path d="M20.8369 15.7662C19.2068 15.9479 16.944 16.2196 14.4955 16.3104C12.1993 16.4294 9.89734 16.3689 7.61059 16.1295L1.72168 21.7468C1.72168 21.7468 4.80361 22.381 8.33566 22.7427C10.51 23.0144 12.4119 23.1051 13.4995 23.196C13.5904 23.196 13.6804 23.1061 13.7712 23.1061C14.3933 22.9748 14.9614 22.6592 15.4014 22.2002C16.3073 21.3843 21.2903 15.6762 20.8369 15.7662Z" fill="#A1C616"/>
<path d="M20.8372 15.7664C19.207 15.9481 16.9442 16.2198 14.4957 16.3106C14.4957 16.3106 14.9491 22.833 13.4089 23.1055C14.1163 23.053 14.786 22.7658 15.3116 22.2895C16.2167 21.5653 21.2898 15.6764 20.8372 15.7664Z" fill="#A1C616"/>
<path d="M13.7708 23.1986H13.4082C13.6892 23.0993 13.962 22.9781 14.2241 22.8362C14.6858 22.4348 15.0039 21.8938 15.13 21.2952C15.4017 19.7542 15.7643 17.4022 15.9451 15.0445C16.1679 12.726 16.198 10.3931 16.0352 8.06964L21.9241 2.45239C21.9241 2.45239 22.3774 5.53435 22.5591 9.0664C22.74 11.3316 22.74 13.4151 22.74 14.5003C22.7552 14.8099 22.6975 15.1188 22.5716 15.4021C22.4457 15.6854 22.255 15.9351 22.0149 16.1313C21.1998 16.9464 17.0319 20.9326 15.3109 22.5636C15.1212 22.7819 14.8832 22.9529 14.6159 23.0632C14.3485 23.1734 14.0592 23.2197 13.7708 23.1986Z" fill="#A1C616"/>
</svg>
