<svg width="106" height="43" viewBox="0 0 106 43" fill="none" xmlns="http://www.w3.org/2000/svg">
<g opacity="0.3" clip-path="url(#clip0)">
<path d="M105.998 0H0.00439453V43H105.998V0Z" fill="#87909C"/>
<path fill-rule="evenodd" clip-rule="evenodd" d="M-0.00195312 6.26514H9.07855V7.39727H-0.00195312V6.26514ZM-0.00195312 13.487H9.07855V14.6191H-0.00195312V13.487ZM-0.00195312 20.9023H9.07855V22.0342H-0.00195312V20.9023ZM-0.00195312 28.4157H9.07855V29.5476H-0.00195312V28.4157ZM-0.00195312 35.6611H9.07855V36.793H-0.00195312V35.6611Z" fill="white"/>
<path fill-rule="evenodd" clip-rule="evenodd" d="M96.9194 6.26514H106V7.39727H96.9194V6.26514ZM96.9194 13.487H106V14.6191H96.9194V13.487ZM96.9194 20.9023H106V22.0342H96.9194V20.9023ZM96.9194 28.4157H106V29.5476H96.9194V28.4157ZM96.9194 35.6611H106V36.793H96.9194V35.6611Z" fill="white"/>
<path d="M67.3342 28.9259L67.2394 29.0108L61.8282 6.28223H49.9616L43.4553 36.7826H51.084L56.0647 13.4209H56.15L61.5537 36.7826H73.2887L79.795 6.28223H72.1654L67.3342 28.9259Z" fill="white"/>
<path d="M30.8913 5.64819C21.333 5.73403 15.0283 11.2675 12.8516 21.491C10.675 31.7144 14.5816 37.424 24.1191 37.424C31.5349 37.424 39.4891 34.7121 41.0005 27.0252H32.1046C31.3125 29.9409 28.9465 31.5031 25.3806 31.5031C20.5911 31.5031 20.7434 26.2658 21.6794 21.8295C22.6541 17.2668 24.7598 11.5636 29.6289 11.5636C33.1115 11.5636 34.85 13.1267 34.4752 15.8726H43.3711C45.1456 8.18481 38.308 5.64819 30.8913 5.64819Z" fill="white"/>
<path d="M93.8219 6.28223H85.3425L78.8362 36.7826H87.3138L93.8219 6.28223Z" fill="white"/>
</g>
<defs>
<clipPath id="clip0">
<rect width="106" height="43" fill="white"/>
</clipPath>
</defs>
</svg>
