<svg width="60" height="30" viewBox="0 0 60 30" fill="none" xmlns="http://www.w3.org/2000/svg">
<path fill-rule="evenodd" clip-rule="evenodd" d="M44.9982 10.3984H42.5419L41.2036 17.1946H43.3863C44.8314 17.1946 45.9094 16.9246 46.6169 16.3879C47.3244 15.8512 47.8017 14.9523 48.0486 13.6977C48.2856 12.4926 48.1788 11.6398 47.7249 11.1426C47.271 10.6454 46.3632 10.3984 44.9982 10.3984Z" fill="#A1C616"/>
<path fill-rule="evenodd" clip-rule="evenodd" d="M30 0C13.4331 0 0 6.71715 0 14.9984C0 23.2828 13.4331 29.9967 30 29.9967C46.5669 29.9967 60 23.2796 60 14.9984C60 6.71715 46.5669 0 30 0ZM21.5196 17.9223C20.8054 18.5841 20.0078 19.055 19.1334 19.3349C18.259 19.6148 17.1443 19.7563 15.7893 19.7563H12.7189L11.8678 24.0731H8.28346L11.4807 7.83668H18.3758C20.4483 7.83668 21.9635 8.37339 22.9147 9.44682C23.8658 10.5203 24.1529 12.0184 23.7724 13.9447C23.6155 14.7382 23.3519 15.4626 22.9814 16.1179C22.6076 16.7764 22.1204 17.3757 21.5196 17.9223ZM31.9858 19.7563L33.4008 12.5716C33.561 11.755 33.5043 11.1986 33.2239 10.8989C32.9436 10.6026 32.3495 10.4544 31.4384 10.4544H28.5949L26.7627 19.7563H23.205L26.4023 3.51992H29.96L29.1089 7.83668H32.2761C34.2686 7.83668 35.6436 8.17912 36.4012 8.8673C37.1587 9.55219 37.3857 10.6651 37.082 12.2028L35.5968 19.7563H31.9858ZM51.7533 13.9447C51.5964 14.7382 51.3327 15.4626 50.9623 16.1179C50.5885 16.7764 50.1046 17.3757 49.5038 17.9223C48.7896 18.5841 47.992 19.055 47.1176 19.3349C46.2432 19.6148 45.1285 19.7563 43.7735 19.7563H40.7031L39.852 24.0731H36.2677L39.4649 7.83668H46.36C48.4325 7.83668 49.9477 8.37339 50.8989 9.44682C51.8467 10.5203 52.1337 12.0184 51.7533 13.9447Z" fill="#A1C616"/>
<path fill-rule="evenodd" clip-rule="evenodd" d="M17.0173 10.3984H14.561L13.2227 17.1946H15.402C16.8471 17.1946 17.9251 16.9246 18.6326 16.3879C19.3401 15.8512 19.8174 14.9523 20.0644 13.6977C20.3013 12.4926 20.1945 11.6398 19.7406 11.1426C19.2867 10.6454 18.379 10.3984 17.0173 10.3984Z" fill="#A1C616"/>
</svg>
