<svg width="180" height="29" viewBox="0 0 180 29" fill="none" xmlns="http://www.w3.org/2000/svg">
<g clip-path="url(#clip0)">
<path d="M21.1698 7.39998H21.2798L21.2198 7.34998L25.2298 3.33998L25.2398 3.26998C21.8598 0.289983 17.1798 -0.740017 12.8698 0.559983C8.55979 1.85998 5.21979 5.28998 4.02979 9.62998C4.09979 9.58998 4.16978 9.56998 4.23978 9.54998C5.72978 8.56998 7.49978 8.00998 9.36978 7.99998C9.98978 7.99998 10.6098 8.05998 11.2098 8.16998C11.2398 8.14998 11.2698 8.13998 11.2898 8.14998C13.8698 5.30998 18.2098 4.98998 21.1898 7.39998H21.1698Z" fill="#A1C616"/>
<path d="M29.2196 9.62002C28.5496 7.17002 27.1796 4.96002 25.2796 3.27002L21.2096 7.34002C22.9296 8.74002 23.9096 10.86 23.8696 13.08V13.8C28.6996 13.8 28.6996 21.05 23.8696 21.05H16.6196L16.6096 21.06V26.81H16.5796L16.6196 26.85H23.8696C28.0296 26.88 31.7096 24.19 32.9396 20.22C34.1696 16.26 32.6596 11.95 29.2196 9.62002Z" fill="#A1C616"/>
<path d="M9.36969 26.8099H16.6097V21.0099H9.36969C8.85969 21.0099 8.34969 20.8999 7.87969 20.6799L3.68969 24.8699L3.67969 24.9099C5.31969 26.1499 7.31969 26.8199 9.36969 26.8099Z" fill="#A1C616"/>
<path d="M9.36982 7.99997C5.34982 8.02997 1.77982 10.6 0.49982 14.41C-0.79018 18.23 0.49982 22.43 3.68982 24.89L7.88982 20.69C5.57982 19.65 5.02982 16.62 6.81982 14.83C8.60982 13.04 11.6398 13.59 12.6798 15.9L16.8798 11.7C15.0898 9.34997 12.3098 7.97997 9.36982 7.99997Z" fill="#A1C616"/>
<path d="M52.6598 22.76C50.1398 22.79 47.7098 21.8 45.9398 20C44.1198 18.28 43.0898 15.87 43.1198 13.36C43.0898 10.85 44.1098 8.44001 45.9398 6.72001C47.6998 4.91001 50.1298 3.89001 52.6598 3.91001C55.0698 3.88001 57.3898 4.81001 59.0998 6.51001L57.2898 8.35001C56.0498 7.15001 54.3798 6.49001 52.6598 6.52001C50.8498 6.49001 49.1098 7.23001 47.8698 8.56001C46.5898 9.83001 45.8798 11.58 45.9098 13.39C45.8898 15.18 46.5998 16.9 47.8698 18.16C50.4898 20.77 54.7198 20.82 57.3898 18.27C58.1898 17.39 58.6798 16.28 58.7798 15.11H52.6698V12.5H61.3098C61.3998 13.02 61.4298 13.56 61.4098 14.09C61.5198 16.31 60.7098 18.48 59.1798 20.1C57.4998 21.88 55.1198 22.85 52.6598 22.76ZM72.7498 21.03C70.3398 23.34 66.5398 23.34 64.1298 21.03C62.9598 19.9 62.3198 18.33 62.3698 16.71C62.3298 15.08 62.9698 13.51 64.1298 12.38C66.5398 10.07 70.3398 10.07 72.7498 12.38C73.9198 13.51 74.5498 15.08 74.5098 16.71C74.5498 18.33 73.9098 19.9 72.7498 21.03ZM66.0298 19.33C67.3298 20.72 69.5398 20.72 70.8398 19.33C71.5198 18.63 71.8898 17.68 71.8598 16.71C71.8898 15.73 71.5198 14.78 70.8398 14.07C69.5198 12.7 67.3198 12.7 66.0098 14.07C65.3298 14.77 64.9598 15.73 64.9898 16.71C64.9598 17.69 65.3298 18.63 66.0198 19.33H66.0298ZM85.9998 21.03C83.5898 23.34 79.7898 23.34 77.3798 21.03C76.2098 19.9 75.5798 18.33 75.6198 16.71C75.5798 15.08 76.2098 13.51 77.3798 12.38C79.7898 10.07 83.5898 10.07 85.9998 12.38C87.1698 13.51 87.7998 15.08 87.7598 16.71C87.7998 18.33 87.1698 19.9 85.9998 21.03ZM79.2798 19.33C80.5798 20.72 82.7898 20.72 84.0998 19.33C84.7798 18.63 85.1398 17.68 85.1198 16.71C85.1498 15.73 84.7798 14.78 84.0998 14.07C82.7798 12.7 80.5798 12.7 79.2598 14.07C78.5798 14.77 78.2098 15.73 78.2398 16.71C78.2098 17.69 78.5798 18.63 79.2598 19.33H79.2798ZM94.7098 28.2C93.4898 28.24 92.2898 27.86 91.3198 27.12C90.4598 26.47 89.7698 25.6 89.3398 24.61L91.6598 23.65C91.9098 24.24 92.3098 24.76 92.8098 25.17C93.3398 25.61 94.0198 25.83 94.7098 25.81C95.5998 25.86 96.4598 25.53 97.0798 24.89C97.6898 24.15 97.9998 23.21 97.9298 22.25V21.37H97.8298C97.0498 22.3 95.8598 22.81 94.6498 22.74C93.0998 22.75 91.6298 22.1 90.5798 20.97C89.4398 19.85 88.8098 18.3 88.8398 16.71C88.8098 15.1 89.4398 13.55 90.5798 12.41C91.6198 11.28 93.0998 10.63 94.6498 10.63C95.2998 10.63 95.9298 10.77 96.5198 11.05C97.0198 11.27 97.4798 11.6 97.8398 12.01H97.9398V11.05H100.46V21.89C100.59 23.62 100.01 25.33 98.8398 26.62C97.7398 27.68 96.2498 28.25 94.7098 28.2ZM94.8898 20.38C95.7698 20.4 96.6098 20.02 97.1898 19.36C97.8198 18.64 98.1498 17.71 98.1098 16.75C98.1498 15.78 97.8198 14.83 97.1898 14.09C96.6098 13.42 95.7698 13.05 94.8898 13.07C93.9798 13.05 93.1198 13.42 92.4998 14.09C91.8298 14.8 91.4598 15.75 91.4798 16.72C91.4598 17.69 91.8298 18.63 92.4998 19.33C93.1198 20.02 93.9898 20.39 94.8898 20.38ZM104.96 22.4H102.3V4.61001H104.96V22.4ZM112.24 22.76C110.63 22.8 109.08 22.17 107.96 21.02C106.82 19.87 106.2 18.32 106.24 16.71C106.18 15.09 106.78 13.52 107.9 12.35C108.96 11.24 110.44 10.62 111.97 10.65C112.67 10.64 113.36 10.78 114.01 11.05C114.59 11.28 115.12 11.63 115.57 12.07C115.96 12.44 116.3 12.85 116.59 13.3C116.83 13.68 117.03 14.08 117.19 14.49L117.47 15.18L109.33 18.53C109.83 19.69 111 20.42 112.26 20.36C113.48 20.36 114.61 19.73 115.24 18.68L117.28 20.05C116.76 20.79 116.09 21.42 115.32 21.9C114.39 22.49 113.33 22.78 112.24 22.76ZM108.84 16.52L114.25 14.27C114.09 13.87 113.79 13.54 113.41 13.34C112.99 13.1 112.5 12.98 112.02 12.99C111.19 13.01 110.4 13.36 109.83 13.95C109.14 14.63 108.77 15.56 108.84 16.52Z" fill="#A1C616"/>
<path d="M131.37 22.76C129.09 22.8 126.89 21.91 125.28 20.29C123.67 18.67 122.79 16.47 122.84 14.18C122.79 11.9 123.67 9.70003 125.28 8.07003C126.89 6.45003 129.09 5.56003 131.37 5.60003C133.69 5.53003 135.91 6.52003 137.41 8.29003L135.94 9.71003C134.84 8.33003 133.15 7.55003 131.38 7.63003C129.68 7.59003 128.05 8.25003 126.85 9.44003C125.6 10.69 124.94 12.41 125.01 14.18C124.94 15.95 125.6 17.67 126.85 18.92C128.05 20.12 129.68 20.77 131.38 20.73C133.35 20.75 135.22 19.88 136.47 18.35L137.93 19.81C137.17 20.73 136.2 21.46 135.11 21.96C133.94 22.51 132.66 22.78 131.37 22.76Z" fill="#A1C616"/>
<path d="M139.76 22.4H141.86V5.95996H139.76V22.4Z" fill="#A1C616"/>
<path d="M145.3 12.5099C147.6 10.2299 151.31 10.2299 153.61 12.5099C154.7 13.6599 155.29 15.1999 155.24 16.7799C155.29 18.3699 154.71 19.8999 153.61 21.0499C151.32 23.3399 147.6 23.3399 145.3 21.0499C144.21 19.8999 143.63 18.3599 143.67 16.7799C143.63 15.1899 144.22 13.6599 145.3 12.5099ZM146.87 19.7299C148.27 21.2099 150.63 21.2099 152.03 19.7299C152.78 18.9299 153.17 17.8699 153.12 16.7799C153.17 15.6899 152.78 14.6299 152.03 13.8299C150.63 12.3499 148.27 12.3499 146.87 13.8299C146.13 14.6299 145.74 15.6899 145.78 16.7799C145.74 17.8699 146.13 18.9299 146.88 19.7199L146.87 19.7299Z" fill="#A1C616"/>
<path d="M166.91 22.4H164.87V20.84H164.81C164.45 21.43 163.93 21.92 163.33 22.24C162.7 22.61 161.97 22.8 161.24 22.8C160.04 22.88 158.86 22.41 158.04 21.52C157.27 20.54 156.88 19.32 156.95 18.08V11.16H159.05V17.69C159.05 19.78 159.98 20.83 161.83 20.83C162.67 20.86 163.46 20.47 163.97 19.81C164.52 19.12 164.8 18.26 164.79 17.38V11.15H166.9V22.4H166.91Z" fill="#A1C616"/>
<path d="M174.06 22.76C172.61 22.77 171.24 22.13 170.3 21.04C169.25 19.88 168.68 18.35 168.72 16.78C168.68 15.21 169.25 13.68 170.3 12.51C171.24 11.42 172.62 10.79 174.06 10.79C174.86 10.78 175.66 10.97 176.36 11.34C176.99 11.65 177.51 12.12 177.89 12.71H177.98L177.89 11.15V5.94995H180V22.4H177.97V20.84H177.88C177.5 21.43 176.98 21.8999 176.35 22.2099C175.64 22.58 174.86 22.77 174.06 22.76ZM174.41 20.84C175.37 20.86 176.29 20.45 176.94 19.74C177.66 18.92 178.02 17.86 177.96 16.78C178.02 15.7 177.66 14.63 176.94 13.82C175.57 12.32 173.21 12.32 171.85 13.82C171.13 14.63 170.76 15.69 170.83 16.77C170.76 17.85 171.13 18.91 171.85 19.72C172.51 20.45 173.44 20.85 174.41 20.84Z" fill="#A1C616"/>
</g>
<defs>
<clipPath id="clip0">
<rect width="180" height="28.2" fill="white"/>
</clipPath>
</defs>
</svg>
