<svg width="28" height="52" viewBox="0 0 28 52" fill="none" xmlns="http://www.w3.org/2000/svg">
<g clip-path="url(#clip0)">
<path d="M17.602 0.013916C18.4212 0.942921 18.6914 2.27131 18.4561 3.46947C18.2033 4.81522 17.4538 6.0047 16.5736 7.02921C15.8677 7.85403 15.0572 8.58334 14.2118 9.26056C13.227 10.0506 12.2596 10.9015 11.6408 12.0128C11.1179 12.9158 10.9959 14.0271 11.3532 15.0082C11.9372 16.6926 13.2967 17.9429 14.0375 19.5317C13.2183 18.8111 12.4165 18.0644 11.667 17.2743C10.8826 16.4408 10.1418 15.5552 9.65379 14.5133C9.32261 13.784 9.17446 12.9332 9.4272 12.1604C9.67994 11.3704 10.2464 10.7365 10.8129 10.1462C12.3903 8.57466 14.3338 7.41991 15.8764 5.82237C16.7305 4.94546 17.4364 3.8949 17.6804 2.68806C17.8809 1.80247 17.785 0.890828 17.602 0.013916Z" fill="#A1C616" stroke="#E22022" stroke-width="0.0938" stroke-miterlimit="10"/>
<path d="M16.3116 9.90303C18.0024 8.66146 19.9807 7.87137 21.9852 7.29834C20.399 8.30549 18.7431 9.22581 17.3749 10.5195C16.8781 10.997 16.4075 11.544 16.1896 12.2125C16.024 12.7074 16.0937 13.2544 16.2942 13.7232C16.6602 14.5567 17.279 15.234 17.7496 15.998C18.1505 16.6492 18.2202 17.4827 17.9152 18.1859C17.4533 19.2191 16.5469 19.9745 15.6057 20.5736C15.4837 20.643 15.3791 20.7733 15.2309 20.7906C15.8584 20.2263 16.3465 19.4275 16.3291 18.568C16.3116 17.9255 15.9543 17.3611 15.536 16.901C14.6732 15.8764 13.9498 14.5741 14.098 13.1936C14.2461 11.8131 15.2397 10.7018 16.3116 9.90303Z" fill="#A1C616" stroke="#E22022" stroke-width="0.0938" stroke-miterlimit="10"/>
<path d="M22.3076 19.9397C22.6736 19.4969 23.2575 19.3841 23.7892 19.3146C24.713 19.1931 25.6978 19.4275 26.395 20.0613C26.9702 20.5735 27.2926 21.3723 27.1706 22.145C27.0399 23.0393 26.4386 23.786 25.7588 24.3503C24.5299 25.3314 23.0135 25.9045 21.4971 26.2865C21.5842 26.191 21.6801 26.1042 21.7934 26.0347C22.9438 25.4183 24.0855 24.6976 24.9308 23.6905C25.445 23.0654 25.8459 22.2492 25.6803 21.4244C25.506 20.4694 24.5735 19.7748 23.6236 19.7227C23.1704 19.6793 22.7433 19.8529 22.3076 19.9397Z" fill="#A1C616" stroke="#0B6FB7" stroke-width="0.0938" stroke-miterlimit="10"/>
<path d="M4.79035 20.7298C6.39393 20.0439 8.13696 19.6011 9.88871 19.6272C8.86903 19.9224 7.82322 20.1742 6.86455 20.6257C6.63796 20.7472 6.3765 20.8601 6.24578 21.0945C6.17606 21.2768 6.36779 21.3984 6.50723 21.4592C7.09986 21.7023 7.7535 21.737 8.3897 21.7978C10.6208 21.9454 12.8606 21.8585 15.0829 21.7196C17.2791 21.5807 19.4579 21.2855 21.628 20.9382C21.1487 21.164 20.6606 21.3897 20.2161 21.6762C19.9896 21.8325 19.7107 21.8759 19.4579 21.9367C16.7911 22.5271 14.0545 22.7094 11.3354 22.7528C10.2809 22.7615 9.23507 22.7441 8.18925 22.6747C7.02142 22.5965 5.84488 22.5097 4.7032 22.2058C4.37202 22.1103 4.02342 22.0061 3.76196 21.7717C3.63123 21.6675 3.63124 21.4592 3.74453 21.3376C4.03213 21.0424 4.43303 20.9035 4.79035 20.7298Z" fill="#A1C616" stroke="#0B6FB7" stroke-width="0.0938" stroke-miterlimit="10"/>
<path d="M6.84723 24.4372C7.30042 24.0813 7.84076 23.8816 8.38109 23.6906C8.20679 23.8989 7.96277 24.0986 7.94534 24.3851C7.93662 24.5675 8.08478 24.7064 8.23294 24.7932C8.52054 24.9408 8.843 24.9929 9.16546 25.0363C10.8388 25.21 12.5295 25.3055 14.2202 25.1926C15.7628 25.1144 17.2967 24.8627 18.8218 24.5935C19.2402 24.9842 19.7369 25.2534 20.2598 25.4878C18.4209 26.0261 16.5297 26.3387 14.6298 26.4862C12.8345 26.6078 11.0131 26.5991 9.22646 26.3126C8.52054 26.1824 7.79718 26.0348 7.15226 25.7048C6.89081 25.5659 6.59449 25.3836 6.51606 25.0797C6.46376 24.8192 6.6555 24.5848 6.84723 24.4372Z" fill="#A1C616" stroke="#0B6FB7" stroke-width="0.0938" stroke-miterlimit="10"/>
<path d="M7.85822 28.2227C8.25912 27.9014 8.75588 27.7365 9.24393 27.5975C9.08706 27.7451 8.80818 27.9275 8.93019 28.1792C9.1655 28.4831 9.60125 28.5179 9.94986 28.596C11.4227 28.7783 12.913 28.8999 14.3859 28.787C15.5014 28.7176 16.5995 28.5179 17.6889 28.3269C18.3164 28.6915 18.97 29.0041 19.6411 29.2819C18.6127 29.7421 17.5059 30.0373 16.3991 30.2456C14.534 30.5756 12.608 30.619 10.7342 30.3238C9.90628 30.1762 9.06091 29.9852 8.31141 29.5771C8.02381 29.4121 7.71878 29.2211 7.59677 28.8999C7.5009 28.6481 7.65778 28.3798 7.85822 28.2227Z" fill="#A1C616" stroke="#0B6FB7" stroke-width="0.0938" stroke-miterlimit="10"/>
<path d="M3.02116 30.6807C3.82296 30.4115 4.6509 30.1945 5.49626 30.1684C5.83615 30.1597 6.18476 30.1771 6.48107 30.3507C5.47012 30.4115 4.45916 30.6633 3.55279 31.1235C3.35234 31.2363 3.12575 31.3666 3.04731 31.601C3.04731 31.8701 3.35234 31.957 3.55279 32.0438C4.81648 32.5126 6.16733 32.6602 7.49203 32.7991C11.44 33.1291 15.4141 33.0423 19.3621 32.6863C20.8523 32.5213 22.3513 32.3564 23.7981 31.9483C24.26 31.792 24.7829 31.6357 25.0879 31.2277C25.2709 30.9845 25.1489 30.6807 24.9659 30.4723C25.2622 30.6373 25.6805 30.8456 25.6195 31.245C25.5062 31.6618 25.0792 31.8788 24.7306 32.0785C23.615 32.6429 22.3862 32.9294 21.1661 33.1812C17.619 33.8758 13.9848 34.032 10.3767 33.9279C7.65762 33.8323 4.93849 33.5719 2.25423 33.1117C1.7749 32.9988 1.23456 32.9033 0.885955 32.53C0.659361 32.2695 0.85981 31.9049 1.07769 31.7139C1.62674 31.2094 2.33267 30.9325 3.02116 30.6807Z" fill="#A1C616" stroke="#0B6FB7" stroke-width="0.0938" stroke-miterlimit="10"/>
<path d="M24.7393 33.6492C25.6195 33.3453 26.5608 33.0241 27.2144 32.3295C27.1011 33.0848 26.4475 33.6058 25.8025 33.9444C24.565 34.5869 23.1793 34.8821 21.8023 35.1252C18.8914 35.5853 15.937 35.6982 12.9826 35.6461C10.9694 35.5853 8.93875 35.5072 6.96041 35.0904C6.4898 34.9602 5.98432 34.8734 5.57471 34.5956C7.33517 34.8908 9.12177 35.0123 10.9084 35.0818C13.8454 35.1686 16.7911 35.0557 19.7107 34.6911C21.4014 34.4575 23.1009 34.1701 24.7393 33.6492Z" fill="#A1C616" stroke="#0B6FB7" stroke-width="0.0938" stroke-miterlimit="10"/>
<path d="M1.77503 46.5258C1.78375 43.678 1.76632 40.8302 1.78375 37.9738C2.37638 37.9911 2.96901 37.9738 3.56164 37.9911C3.55292 41.1775 3.56164 44.3726 3.55292 47.5677C3.53549 48.462 3.51806 49.3997 3.0823 50.1984C2.60297 51.0493 1.74889 51.6484 0.842513 51.9957C0.554913 51.6831 0.293459 51.3532 0.00585938 51.0406C0.737931 50.6152 1.47 50.0074 1.64431 49.1305C1.80989 48.2701 1.7576 47.394 1.77503 46.5258Z" fill="#A1C616" stroke="#E22022" stroke-width="0.0938" stroke-miterlimit="10"/>
<path d="M5.20884 41.4033C6.38539 40.8997 7.69266 40.6393 8.97379 40.7782C9.63614 40.8563 10.3246 41.0994 10.7517 41.6291C11.109 42.0805 11.2397 42.6622 11.231 43.2266C11.231 45.1714 11.231 47.1076 11.231 49.0524C10.7953 49.0524 10.3595 49.0524 9.91502 49.0524C9.87145 48.7659 9.82787 48.4707 9.79301 48.1755C9.29625 48.5662 8.76462 48.9395 8.14585 49.0958C7.43992 49.2781 6.66427 49.2608 5.97578 48.9916C5.44415 48.7746 5.02583 48.297 4.87767 47.7414C4.65979 46.9339 4.77309 45.9876 5.34829 45.3364C5.86248 44.7373 6.63813 44.4421 7.40506 44.3032C8.11099 44.1643 8.83434 44.1643 9.5577 44.1643C9.54027 43.6173 9.64485 43.0182 9.33111 42.532C9.07837 42.1587 8.61647 42.0111 8.18942 41.985C7.2569 41.9069 6.3331 42.1413 5.45287 42.4452C5.36572 42.0979 5.28728 41.7506 5.20884 41.4033ZM7.3702 45.4319C6.98673 45.5534 6.62941 45.8313 6.52483 46.2307C6.40282 46.6735 6.43768 47.1944 6.72528 47.5677C7.00416 47.9324 7.50964 48.0192 7.9454 47.9671C8.55546 47.8977 9.08708 47.5504 9.5577 47.177C9.5577 46.5259 9.54899 45.8834 9.5577 45.2322C8.82563 45.2313 8.07613 45.1879 7.3702 45.4319Z" fill="#A1C616" stroke="#E22022" stroke-width="0.0938" stroke-miterlimit="10"/>
<path d="M20.5301 41.4033C21.7153 40.8997 23.0226 40.6306 24.3125 40.7782C24.9574 40.8563 25.6197 41.0908 26.0468 41.5943C26.4477 42.0719 26.5697 42.7057 26.561 43.3134C26.5522 45.2322 26.5697 47.1423 26.5435 49.0611C26.1078 49.0437 25.672 49.0698 25.2363 49.0437C25.1927 48.7485 25.1578 48.462 25.1055 48.1755C24.4955 48.6965 23.7634 49.1219 22.9355 49.1913C22.1772 49.2608 21.3232 49.1653 20.7305 48.627C20.1118 48.054 20.0072 47.125 20.1641 46.3349C20.3122 45.6056 20.8613 45.0065 21.5236 44.6852C22.5607 44.1817 23.746 44.1556 24.8789 44.1643C24.8615 43.6347 24.9574 43.0703 24.6872 42.5928C24.478 42.2108 24.0336 42.0371 23.6152 41.9937C22.6479 41.8895 21.6805 42.1326 20.7741 42.4452C20.6957 42.0979 20.6085 41.7506 20.5301 41.4033ZM22.6653 45.4406C22.2993 45.5621 21.9594 45.84 21.8461 46.222C21.7241 46.6648 21.7589 47.1857 22.0378 47.5678C22.3254 47.9411 22.8396 48.0192 23.2841 47.9671C23.8854 47.8803 24.4345 47.5504 24.8877 47.151C24.8702 46.5172 24.8789 45.8747 24.8789 45.2322C24.1382 45.2313 23.3799 45.1879 22.6653 45.4406Z" fill="#A1C616" stroke="#E22022" stroke-width="0.0938" stroke-miterlimit="10"/>
<path d="M12.2246 40.8823C12.8347 40.8823 13.4447 40.8823 14.0548 40.8823C14.4121 42.0284 14.7607 43.1658 15.118 44.3118C15.3272 45.0151 15.5887 45.7097 15.7368 46.4303C15.8152 46.7516 15.885 47.0815 15.9808 47.394C16.7303 45.2842 17.3055 43.105 17.6019 40.8823C18.1945 40.8823 18.7871 40.8823 19.3797 40.8823C18.8655 43.6954 18.055 46.465 16.8349 49.0524C16.1377 49.0524 15.4405 49.0524 14.7433 49.0524C13.9066 46.3253 13.0613 43.6086 12.2246 40.8823Z" fill="#A1C616" stroke="#E22022" stroke-width="0.0938" stroke-miterlimit="10"/>
<path d="M26.9087 40.7244H26.6943V40.6471H27.2155V40.7244H27.0002V41.3495H26.9079V40.7244H26.9087Z" fill="#A1C616" stroke="#E22022" stroke-width="0.0938" stroke-miterlimit="10"/>
<path d="M27.889 41.0404C27.8838 40.9423 27.8777 40.8233 27.8777 40.7374H27.876C27.8507 40.819 27.8228 40.9076 27.7871 41.0039L27.6624 41.3443H27.5936L27.4786 41.01C27.4454 40.9102 27.4176 40.8207 27.3984 40.7374H27.3966C27.3949 40.8251 27.3897 40.9414 27.3827 41.0473L27.3635 41.3486H27.2764L27.3252 40.6471H27.4411L27.5614 40.9866C27.591 41.0734 27.6136 41.1498 27.6328 41.2227H27.6346C27.6537 41.1515 27.6781 41.0751 27.7095 40.9866L27.835 40.6471H27.9509L27.9945 41.3486H27.9047L27.889 41.0404Z" fill="#A1C616" stroke="#E22022" stroke-width="0.0938" stroke-miterlimit="10"/>
</g>
<defs>
<clipPath id="clip0">
<rect width="28" height="52" fill="white"/>
</clipPath>
</defs>
</svg>
