<svg width="144" height="40" viewBox="0 0 144 40" fill="none" xmlns="http://www.w3.org/2000/svg">
<g opacity="0.3">
<path d="M144 0H0V40H144V0Z" fill="#87909C"/>
<path d="M22.3948 7.3685C22.3948 10.1785 27.0899 13.2998 27.0899 16.51C27.0827 16.7292 27.0386 16.9456 26.9595 17.1501C31.3496 18.0806 34.4576 20.2722 34.4576 22.8405C34.4576 26.2932 28.9151 29.151 22.0463 29.151C15.0262 29.151 9.59399 26.3402 9.59399 22.9731C9.59399 20.4064 12.9628 18.324 17.0319 17.2189C17.0319 18.6344 21.6576 23.1301 21.7688 24.9433C21.8016 25.141 21.8016 25.3428 21.7688 25.5406C22.7717 25.0112 22.7717 23.3489 22.7717 23.3489C22.7717 19.4054 18.2738 17.6603 18.2738 13.7839C18.2292 13.2239 18.3275 12.6618 18.5594 12.1506C18.7914 11.6394 19.1492 11.1959 19.5993 10.8621V11.9454C19.5993 14.7579 24.4665 17.9028 24.4665 20.4686V21.3077C25.5989 20.8672 25.5989 18.761 25.5989 18.761C25.5989 15.2185 21.0777 13.2494 21.0777 9.19593C21.0334 8.63602 21.1318 8.07404 21.3637 7.5629C21.5956 7.05175 21.9533 6.60834 22.4031 6.27441L22.3948 7.3685Z" fill="white"/>
<path d="M44.3207 28.0619C42.9302 28.0703 41.5486 27.838 40.2366 27.3755V23.1954H40.8215C41.1249 25.4063 42.7763 27.0879 44.6658 27.0879C46.5554 27.0879 47.8817 26.0265 47.8817 24.345C47.8817 22.5536 46.1209 21.7355 44.9492 21.1381L43.2551 20.2755C41.6481 19.4575 40.3444 18.1293 40.3444 16.2716C40.3444 13.9491 42.0383 11.959 45.2751 11.959C46.6553 11.9723 48.0226 12.2278 49.315 12.714V16.4513H48.73C48.384 14.461 47.2976 12.8902 45.0821 12.8902C44.7564 12.8634 44.4287 12.9028 44.1185 13.006C43.8083 13.1092 43.522 13.274 43.2768 13.4908C43.0315 13.7076 42.8323 13.972 42.691 14.2678C42.5497 14.5636 42.4693 14.885 42.4545 15.2128C42.4545 16.739 43.4967 17.4253 44.711 18.0454L46.4058 18.9072C47.9469 19.7051 49.8599 21.0316 49.8599 23.2886C49.8599 26.1632 47.9043 28.0671 44.3215 28.0671" fill="white"/>
<path d="M55.2704 23.5051C54.9139 23.607 54.5991 23.8208 54.3724 24.1152C54.1456 24.4096 54.0187 24.7692 54.0102 25.1413C53.9993 25.3382 54.0291 25.5353 54.0979 25.7201C54.1668 25.905 54.273 26.0734 54.41 26.2149C54.547 26.3563 54.7117 26.4679 54.8938 26.5422C55.0758 26.6165 55.2712 26.6519 55.4676 26.6465C56.1453 26.5906 56.7895 26.3271 57.3129 25.8914V22.6192L55.2704 23.5051ZM54.3804 27.9739C54.0531 27.9923 53.7256 27.9406 53.4197 27.8221C53.1139 27.7036 52.8367 27.5212 52.6065 27.2868C52.3764 27.0524 52.1986 26.7714 52.0849 26.4627C51.9713 26.154 51.9246 25.8246 51.9476 25.4963C51.9476 24.4357 52.7081 23.6151 54.3804 22.9959L57.3129 21.9127V20.9821C57.3129 19.5901 56.6827 18.7267 55.725 18.7267C55.4034 18.7238 55.0861 18.8011 54.8016 18.9518C54.5172 19.1025 54.2745 19.3219 54.0954 19.5901C53.9821 19.8075 53.9302 20.0518 53.945 20.2966C53.9674 20.5828 54.0481 20.8612 54.1823 21.1146L52.7499 21.7801C52.5198 21.4054 52.3855 20.9794 52.3587 20.54C52.3587 20.4561 52.3805 20.3629 52.3805 20.2958C52.49 19.5004 53.1635 18.9693 54.0745 18.4172C54.726 17.9811 55.4856 17.7356 56.2682 17.7082C56.6752 17.6739 57.0849 17.7243 57.4715 17.8563C57.8582 17.9883 58.2136 18.199 58.5154 18.4754C58.8171 18.7517 59.0588 19.0876 59.2252 19.4621C59.3916 19.8366 59.4792 20.2414 59.4825 20.6514V25.231C59.4825 25.9584 59.5484 26.425 60.1343 26.425C60.3129 26.4343 60.4913 26.4037 60.6566 26.3353L61.1781 26.16V26.8237L58.1361 27.9739C57.7112 27.6084 57.4401 27.0949 57.3773 26.5367C56.553 27.3198 55.5042 27.8225 54.3795 27.9739" fill="white"/>
<path d="M61.8516 27.7523V27.2228L62.5695 27.0878C62.7748 27.0559 62.9619 26.9514 63.0971 26.793C63.2323 26.6347 63.3066 26.4329 63.3065 26.2244V20.3182C63.3065 19.8148 63.0684 19.5447 62.633 19.5447C62.462 19.5438 62.2921 19.5736 62.1315 19.6328L61.8491 19.7436V19.0799L64.9755 17.7073H65.4327V19.3458C65.8043 18.8715 66.2707 18.4805 66.802 18.1983C67.3333 17.916 67.9176 17.7489 68.5173 17.7073C70.7319 17.7073 71.7959 19.3233 71.7959 21.2028V26.2235C71.7974 26.4355 71.8752 26.6398 72.0152 26.7985C72.1552 26.9573 72.3478 27.0598 72.5572 27.087L73.2951 27.222V27.7515H68.1253V27.222L68.8424 27.087C69.0525 27.0569 69.2456 26.9543 69.3884 26.7967C69.5312 26.6391 69.6147 26.4364 69.6246 26.2235V21.2269C69.6634 20.9553 69.6425 20.6786 69.5634 20.416C69.4844 20.1533 69.3491 19.9112 69.167 19.7066C68.9849 19.502 68.7604 19.34 68.5093 19.2317C68.2582 19.1235 67.9865 19.0717 67.7134 19.0799C66.866 19.1399 66.07 19.5098 65.4761 20.1195V26.2235C65.4856 26.4365 65.569 26.6394 65.7119 26.7971C65.8548 26.9548 66.0481 27.0574 66.2584 27.087L66.9746 27.222V27.7515L61.8516 27.7523Z" fill="white"/>
<path d="M80.7909 19.0589H77.7505V24.5455C77.7505 25.7621 78.3807 26.4249 79.2933 26.4249C79.819 26.4092 80.333 26.2652 80.7909 26.0054L81.0299 26.5364L79.0752 27.7949C78.8816 27.8285 78.6862 27.8508 78.4901 27.8613C76.6005 27.8613 75.5793 26.7344 75.5793 24.3439V19.0581H73.9915V18.505C75.4551 17.8825 76.6385 16.7398 77.3151 15.2957H77.7488V18.1049H81.1812L80.7909 19.0589Z" fill="white"/>
<path d="M85.3472 23.5052C84.9906 23.6071 84.6758 23.8209 84.4489 24.1153C84.2219 24.4097 84.0948 24.7692 84.0861 25.1413C84.0743 25.3383 84.1035 25.5356 84.1719 25.7206C84.2402 25.9057 84.3462 26.0743 84.4831 26.216C84.62 26.3576 84.7847 26.4692 84.9669 26.5433C85.1491 26.6174 85.3447 26.6525 85.5412 26.6465C86.2191 26.5909 86.8636 26.3273 87.3872 25.8915V22.6193L85.3472 23.5052ZM84.4547 27.9739C84.1275 27.9923 83.8001 27.9405 83.4944 27.822C83.1887 27.7034 82.9116 27.5209 82.6816 27.2865C82.4516 27.0521 82.274 26.7713 82.1605 26.4626C82.047 26.1539 82.0004 25.8245 82.0236 25.4963C82.0236 24.4358 82.7849 23.6152 84.4547 22.996L87.3881 21.9128V20.9821C87.3881 19.5902 86.7579 18.7268 85.8002 18.7268C85.4786 18.7239 85.1613 18.8014 84.8768 18.9521C84.5924 19.1028 84.3497 19.322 84.1706 19.5902C84.0568 19.8074 84.0044 20.0518 84.0193 20.2967C84.0418 20.5831 84.1232 20.8615 84.2583 21.1147L82.8241 21.7802C82.5939 21.4056 82.4599 20.9795 82.4339 20.5401C82.4339 20.4562 82.4556 20.363 82.4556 20.2959C82.5626 19.5005 83.2362 18.9694 84.148 18.4173C84.7994 17.9815 85.5586 17.736 86.3409 17.7083C86.748 17.6739 87.1579 17.724 87.5448 17.856C87.9316 17.9879 88.2871 18.1987 88.5891 18.475C88.8911 18.7513 89.133 19.0872 89.2997 19.4618C89.4663 19.8363 89.5541 20.2413 89.5576 20.6515V25.2311C89.5576 25.9585 89.6211 26.4251 90.2086 26.4251C90.3861 26.4343 90.5634 26.4037 90.7276 26.3354L91.2507 26.16V26.8237L88.2096 27.9739C87.7856 27.6076 87.5143 27.0946 87.4499 26.5367C86.6253 27.3203 85.5759 27.8231 84.4505 27.9739" fill="white"/>
<path d="M91.9269 27.7523V27.2228L92.6431 27.0878C92.8487 27.0562 93.0363 26.9518 93.172 26.7934C93.3076 26.6351 93.3823 26.4332 93.3827 26.2244V20.3182C93.3827 19.8148 93.1428 19.5447 92.7091 19.5447C92.5381 19.544 92.3683 19.5738 92.2077 19.6328L91.926 19.7436V19.0799L95.0542 17.7073H95.5105V19.3458C95.882 18.8716 96.3483 18.4807 96.8795 18.1985C97.4106 17.9163 97.9947 17.749 98.5943 17.7073C100.807 17.7073 101.874 19.3233 101.874 21.2028V26.2235C101.875 26.4354 101.952 26.6396 102.092 26.7983C102.232 26.9571 102.424 27.0598 102.633 27.087L103.372 27.222V27.7515H98.204V27.222L98.921 27.087C99.131 27.057 99.324 26.9544 99.4665 26.7967C99.609 26.639 99.6923 26.4363 99.7017 26.2235V21.2269C99.7406 20.9554 99.7198 20.6786 99.6408 20.416C99.5619 20.1533 99.4266 19.9112 99.2445 19.7066C99.0625 19.502 98.8381 19.34 98.587 19.2317C98.3359 19.1235 98.0643 19.0716 97.7912 19.0799C96.9439 19.1401 96.1479 19.51 95.5539 20.1195V26.2235C95.5639 26.4364 95.6474 26.6391 95.7902 26.7967C95.933 26.9543 96.1261 27.0569 96.3362 27.087L97.0524 27.222V27.7515L91.9269 27.7523Z" fill="white"/>
<path d="M109.867 18.6384C108.304 18.6384 106.696 19.6538 106.696 22.6182C106.696 25.0959 107.913 26.6002 109.825 26.6002C110.225 26.6168 110.623 26.53 110.98 26.348C111.338 26.166 111.643 25.8948 111.866 25.5606V19.8107C111.688 19.4362 111.403 19.1238 111.047 18.9143C110.69 18.7048 110.279 18.6078 109.867 18.6359L109.867 18.6384ZM108.891 27.9704C108.269 27.9618 107.655 27.8259 107.087 27.5709C106.52 27.3159 106.01 26.9472 105.589 26.4875C105.168 26.0277 104.845 25.4865 104.64 24.8971C104.435 24.3076 104.351 23.6823 104.395 23.0594C104.381 22.3607 104.506 21.6663 104.763 21.0167C105.019 20.3671 105.403 19.7755 105.89 19.2767C106.378 18.7779 106.96 18.3819 107.602 18.1119C108.244 17.842 108.933 17.7036 109.629 17.7047C110.396 17.6884 111.157 17.8313 111.866 18.1242V13.0572C111.866 12.5244 111.585 12.3707 111.238 12.3707C111.031 12.3754 110.826 12.4126 110.63 12.4807L110.195 12.6368V11.9715L113.584 10.5132H114.039V25.0909C114.039 25.9299 114.17 26.4191 114.757 26.4191C114.935 26.4282 115.113 26.3974 115.277 26.3291L115.799 26.1538V26.8175L112.758 27.9679C112.315 27.5988 112.021 27.0794 111.933 26.508C111.556 26.9516 111.091 27.3106 110.567 27.5621C110.043 27.8136 109.472 27.9519 108.891 27.9679" fill="white"/>
<path d="M123.42 21.138V21.0944C123.42 19.4348 122.509 18.636 121.423 18.636C120.205 18.636 119.292 19.4574 119.033 21.1372L123.42 21.138ZM118.968 22.0451V22.1567C118.946 25.0934 120.596 26.5794 122.661 26.5794C123.665 26.5657 124.635 26.2157 125.419 25.585V26.4685C124.381 27.4388 123.014 27.9766 121.596 27.9729C118.207 27.9729 116.709 25.3853 116.709 22.9294C116.688 22.2604 116.798 21.5937 117.035 20.968C117.272 20.3423 117.63 19.7701 118.088 19.2844C118.547 18.7986 119.097 18.409 119.707 18.1383C120.317 17.8675 120.974 17.7211 121.64 17.7073C122.177 17.6874 122.711 17.7783 123.211 17.9744C123.711 18.1705 124.166 18.4675 124.547 18.8472C124.928 19.2269 125.227 19.6813 125.426 20.1818C125.625 20.6824 125.719 21.2186 125.704 21.7573V22.0443L118.968 22.0451Z" fill="white"/>
<path d="M126.981 27.7514V27.2221L127.698 27.0869C127.902 27.0516 128.088 26.9462 128.222 26.7886C128.357 26.6311 128.433 26.4312 128.437 26.2235V20.3176C128.437 19.8141 128.199 19.543 127.768 19.543C127.597 19.5421 127.427 19.5722 127.267 19.6319L126.983 19.7428V19.0791L130.066 17.7072H130.524V19.8544C131.306 18.3055 132.24 17.6636 133.303 17.6636C134.173 17.6636 134.389 17.885 134.389 17.885V20.2303H133.956C133.922 19.9522 133.78 19.6988 133.561 19.525C133.342 19.3512 133.064 19.2707 132.786 19.3013C132.314 19.2856 131.85 19.4208 131.459 19.687C131.069 19.9533 130.773 20.3371 130.613 20.7832V26.2245C130.637 26.443 130.734 26.647 130.888 26.8036C131.042 26.9602 131.243 27.0602 131.461 27.0877L132.504 27.2229V27.7522L126.981 27.7514Z" fill="white"/>
</g>
</svg>
