<svg width="167" height="25" viewBox="0 0 167 25" fill="none" xmlns="http://www.w3.org/2000/svg">
<path d="M10.8894 12.0935H24.5773V0L10.8894 1.91209V12.0935Z" fill="#A1C616"/>
<path d="M10.4812 12.0934V1.97241L0 3.43665V12.0934H10.4812Z" fill="#A1C616"/>
<path d="M10.8894 12.5024V22.6701L24.5773 24.5807V12.5045L10.8894 12.5024Z" fill="#A1C616"/>
<path d="M10.4812 12.5024H0V21.1499L10.4812 22.6127V12.5024Z" fill="#A1C616"/>
<path d="M54.4278 5.67873C54.4314 5.82571 54.4039 5.97174 54.3472 6.10738C54.2905 6.24301 54.2057 6.36519 54.0986 6.46582C53.8879 6.66544 53.6093 6.77756 53.3192 6.77943C53.029 6.7813 52.749 6.6728 52.5358 6.47591C52.4294 6.37305 52.346 6.2488 52.291 6.11141C52.236 5.97403 52.2107 5.8266 52.2167 5.67873C52.2152 5.53668 52.2422 5.39578 52.2961 5.2643C52.3499 5.13283 52.4294 5.0134 52.5301 4.91314C52.6313 4.80712 52.7537 4.72346 52.8893 4.66762C53.0249 4.61179 53.1706 4.58506 53.3172 4.589C53.4638 4.58565 53.6095 4.61222 53.7454 4.6671C53.8814 4.72197 54.0047 4.80398 54.1079 4.90814C54.2109 5.00799 54.2924 5.12784 54.3474 5.26036C54.4025 5.39287 54.4298 5.53527 54.4278 5.67873Z" fill="#A1C616"/>
<path d="M51.1046 4.91089L46.9354 19.6705H44.9083L41.614 7.97817H41.573L38.2664 19.6705H36.2587L31.9458 4.91089H33.8399L37.2572 17.2315H37.2989L40.8599 4.91089H42.5276L45.9061 17.2747H45.9478L49.2313 4.91089H51.1046Z" fill="#A1C616"/>
<path d="M54.1941 19.6707H52.5056V9.13135H54.1941V19.6707Z" fill="#A1C616"/>
<path d="M65.4751 19.6712H63.7895V13.6605C63.7895 11.4307 62.9729 10.3155 61.3397 10.315C60.9443 10.3083 60.5523 10.3893 60.1919 10.5521C59.8315 10.7149 59.5116 10.9556 59.2552 11.2567C58.6823 11.9231 58.3828 12.7816 58.417 13.6598V19.6705H56.7285V9.13114H58.417V10.8807H58.458C58.7897 10.2567 59.2894 9.73804 59.9005 9.38324C60.5117 9.02844 61.2099 8.85171 61.9162 8.87308C62.4158 8.8415 62.9157 8.9275 63.376 9.12412C63.8363 9.32074 64.244 9.62254 64.5666 10.0053C65.2286 10.9399 65.5501 12.0732 65.4773 13.2162L65.4751 19.6712Z" fill="#A1C616"/>
<path d="M77.1079 19.6706H75.4179V17.88H75.3769C75.0336 18.45 74.5607 18.931 73.9966 19.284C73.4325 19.637 72.7932 19.8521 72.1304 19.9117C71.4677 19.9714 70.8002 19.874 70.1822 19.6274C69.5641 19.3808 69.0129 18.9919 68.5733 18.4924C67.7385 17.3942 67.3194 16.0359 67.3901 14.6582C67.3153 13.147 67.7806 11.6585 68.7027 10.4589C69.1261 9.94093 69.6638 9.52817 70.2735 9.25304C70.8833 8.9779 71.5485 8.84792 72.217 8.87318C72.8513 8.83316 73.4841 8.9721 74.0433 9.27419C74.6025 9.57628 75.0656 10.0293 75.3798 10.5818H75.4208V4.06641H77.1093L77.1079 19.6706ZM75.4194 14.9048V13.3507C75.4311 12.9485 75.3599 12.5482 75.2104 12.1747C75.0609 11.8011 74.8363 11.4623 74.5503 11.1792C74.2749 10.8991 73.9452 10.6781 73.5815 10.5298C73.2177 10.3814 72.8276 10.3089 72.4348 10.3165C71.9712 10.2993 71.51 10.3925 71.0895 10.5885C70.6689 10.7844 70.301 11.0776 70.0159 11.4436C69.3708 12.3528 69.0549 13.4548 69.1203 14.5677C69.064 15.5916 69.362 16.6036 69.9642 17.4336C70.2333 17.7765 70.5797 18.0509 70.9751 18.2343C71.3705 18.4177 71.8037 18.5049 72.2393 18.4888C72.6708 18.5005 73.0995 18.4163 73.4945 18.2423C73.8896 18.0682 74.2411 17.8088 74.5237 17.4825C75.1366 16.7673 75.456 15.8466 75.4179 14.9055L75.4194 14.9048Z" fill="#A1C616"/>
<path d="M89.6351 14.36C89.7046 15.841 89.1928 17.2906 88.2089 18.3997C87.7176 18.9125 87.1221 19.3142 86.4627 19.5777C85.8032 19.8413 85.095 19.9607 84.3855 19.9279C83.6936 19.9597 83.0028 19.8435 82.3593 19.587C81.7159 19.3306 81.1345 18.9398 80.6541 18.4407C79.694 17.3685 79.1932 15.9623 79.2596 14.5246C79.1771 13.0129 79.6907 11.5292 80.6901 10.392C81.2027 9.87502 81.819 9.47238 82.4984 9.21071C83.1779 8.94904 83.905 8.83423 84.6321 8.87385C85.3144 8.83683 85.9966 8.94892 86.6311 9.20229C87.2657 9.45565 87.8375 9.84422 88.3067 10.341C89.243 11.4638 89.7178 12.9004 89.6351 14.36ZM87.9056 14.4217C87.9782 13.3346 87.6668 12.2565 87.0257 11.3754C86.7158 11.0176 86.3277 10.7359 85.8914 10.552C85.4551 10.3682 84.9824 10.287 84.5099 10.3151C84.0271 10.2925 83.5455 10.3784 83.1003 10.5663C82.6551 10.7543 82.2577 11.0395 81.9372 11.4012C81.2574 12.2716 80.9205 13.3612 80.9905 14.4634C80.9263 15.5342 81.2658 16.5902 81.9422 17.4229C82.2658 17.7779 82.6636 18.0574 83.1074 18.2414C83.5512 18.4253 84.03 18.5093 84.5099 18.4874C84.9825 18.517 85.4557 18.4376 85.8928 18.2556C86.33 18.0735 86.7196 17.7936 87.0315 17.4372C87.6695 16.5665 87.9805 15.4989 87.9099 14.4217H87.9056Z" fill="#A1C616"/>
<path d="M104.96 9.13135L101.801 19.6707H100.051L97.6937 11.4876H97.6527L95.1002 19.6707H93.4088L90.228 9.13135H91.9992L94.3253 17.6328H94.408L97.0116 9.13135H98.5556L100.903 17.6328H100.985L103.291 9.13135H104.96Z" fill="#A1C616"/>
<path d="M112.113 16.8506C112.124 17.278 112.034 17.7019 111.851 18.0882C111.668 18.4744 111.396 18.8121 111.058 19.0739C110.252 19.6768 109.26 19.979 108.255 19.9286C107.343 19.9492 106.441 19.7291 105.641 19.2903V17.4789C106.406 18.1267 107.376 18.4832 108.378 18.4852C109.717 18.4852 110.386 17.9948 110.385 17.0138C110.392 16.8332 110.361 16.6531 110.293 16.4854C110.226 16.3177 110.124 16.1661 109.994 16.0405C109.449 15.6222 108.85 15.2809 108.213 15.0262C107.466 14.7531 106.791 14.3149 106.237 13.7445C105.791 13.1432 105.592 12.3944 105.68 11.6511C105.768 10.9079 106.137 10.2263 106.711 9.74573C107.466 9.14379 108.412 8.83337 109.377 8.87098C110.156 8.85959 110.928 9.02861 111.631 9.36482V11.0633C110.938 10.5603 110.1 10.2967 109.243 10.3122C108.761 10.2888 108.286 10.4345 107.9 10.7241C107.737 10.8483 107.607 11.0089 107.518 11.193C107.43 11.3771 107.386 11.5794 107.39 11.7836C107.377 11.9807 107.405 12.1784 107.472 12.3641C107.54 12.5498 107.645 12.7193 107.782 12.8619C108.269 13.2427 108.815 13.5433 109.397 13.7525C110.189 14.0401 110.909 14.4965 111.507 15.0902C111.921 15.5815 112.137 16.2089 112.113 16.8506Z" fill="#A1C616"/>
<path d="M129.914 19.6705H128L126.446 15.543H120.178L118.705 19.6705H116.791L122.432 4.91089H124.222L129.914 19.6705ZM125.869 13.9781L123.316 7.07245H123.275L120.753 13.9781H125.869Z" fill="#A1C616"/>
<path d="M139.181 9.61513L132.933 18.241H139.109V19.6715H130.453V19.1467L136.691 10.5632H131.039V9.13208H139.181V9.61513Z" fill="#A1C616"/>
<path d="M149.298 19.6707H147.61V18.003H147.569C147.273 18.6033 146.809 19.1049 146.234 19.4467C145.658 19.7884 144.996 19.9556 144.327 19.9281C141.809 19.9281 140.55 18.4285 140.55 15.4296V9.13062H142.238V15.1623C142.238 17.3786 143.088 18.4868 144.79 18.4868C145.177 18.4988 145.561 18.4231 145.914 18.2655C146.266 18.1079 146.579 17.8724 146.828 17.5768C147.37 16.9085 147.649 16.0644 147.61 15.2046V9.13202H149.298V19.6707Z" fill="#A1C616"/>
<path d="M157.539 10.8399C157.031 10.5244 156.419 10.4228 155.837 10.5575C155.254 10.6922 154.749 11.0522 154.431 11.5587C153.931 12.3837 153.688 13.3383 153.731 14.3018V19.6743H152.041V9.13489H153.729V11.3065H153.77C153.962 10.6425 154.335 10.0451 154.848 9.58126C155.309 9.16919 155.907 8.94366 156.525 8.94869C156.866 8.9337 157.207 8.9825 157.531 9.09251L157.539 10.8399Z" fill="#A1C616"/>
<path d="M166.993 14.8237H159.551C159.508 15.8175 159.845 16.7904 160.492 17.5458C160.819 17.8684 161.21 18.1189 161.64 18.2811C162.07 18.4432 162.529 18.5135 162.988 18.4874C164.175 18.4905 165.328 18.0843 166.251 17.3373V18.9123C165.171 19.639 163.885 19.9965 162.585 19.9316C161.926 19.9672 161.268 19.855 160.658 19.603C160.049 19.351 159.504 18.9656 159.063 18.4752C158.161 17.3325 157.71 15.8986 157.796 14.4456C157.784 13.4573 158 12.4796 158.429 11.589C158.812 10.772 159.416 10.0786 160.173 9.58701C160.91 9.11473 161.769 8.86787 162.644 8.87678C163.242 8.8448 163.84 8.94801 164.394 9.17872C164.947 9.40943 165.441 9.76171 165.84 10.2095C166.663 11.2725 167.072 12.5988 166.99 13.9409L166.993 14.8237ZM165.263 13.3924C165.301 12.5768 165.051 11.7737 164.558 11.1231C164.319 10.8508 164.02 10.6366 163.686 10.4965C163.352 10.3564 162.99 10.2941 162.628 10.3144C162.253 10.3093 161.881 10.3817 161.536 10.527C161.19 10.6724 160.879 10.8876 160.62 11.1591C160.04 11.7721 159.672 12.5548 159.57 13.3924H165.263Z" fill="#A1C616"/>
</svg>
