<svg width="97" height="38" viewBox="0 0 97 38" fill="none" xmlns="http://www.w3.org/2000/svg">
<path d="M15.4634 7.3158L0.0012207 15.0469V25.5304L6.93324 22.0614C7.03386 22.0105 7.14588 21.9862 7.25857 21.9909C7.37126 21.9956 7.48086 22.0291 7.57689 22.0883C7.67291 22.1475 7.75215 22.2303 7.80701 22.3288C7.86187 22.4274 7.89051 22.5384 7.89021 22.6512V34.4697L16.3833 30.2232V17.7431C16.384 17.6236 16.4179 17.5065 16.4813 17.4051C16.5446 17.3038 16.635 17.222 16.7421 17.169L25.9529 12.5624L15.4634 7.3158Z" fill="#A1C616"/>
<path d="M61.6897 12.0623C62.2088 12.4562 62.645 12.9488 62.9735 13.5116C63.3019 14.0744 63.516 14.6966 63.6036 15.3423H68.9064V26.2792H72.1673V15.3423H77.4772V12.0623H61.6897Z" fill="#090E36"/>
<path d="M54.7135 11.719C51.8536 11.6581 49.0593 12.5789 46.7958 14.328L49.1655 16.828C50.6473 15.6211 52.484 14.9336 54.3941 14.871C55.5712 14.871 56.9444 15.2 56.9444 16.127C56.9444 17.023 55.741 17.34 53.9192 17.8173L53.5938 17.9022C49.4071 19.0063 46.919 21.2516 46.5996 24.2421V26.2864H62.0415V23.0017H51.5387L52.6237 22.1715C54.0061 21.4582 55.4692 20.9136 56.9815 20.5494C60.3393 19.6188 62.0415 18.0948 62.0415 16.0194C62.0415 12.8458 58.094 11.7202 54.7147 11.7202" fill="#090E36"/>
<path d="M89.4608 12.0623H79.0669V26.2792H89.4608C91.3464 26.2792 93.1547 25.5302 94.488 24.1968C95.8214 22.8635 96.5704 21.0551 96.5704 19.1695C96.5704 17.2839 95.8214 15.4756 94.488 14.1423C93.1547 12.8089 91.3464 12.0599 89.4608 12.0599V12.0623ZM89.4608 22.9992H82.329V15.3435H89.4608C90.476 15.3435 91.4496 15.7468 92.1675 16.4646C92.8853 17.1825 93.2886 18.1561 93.2886 19.1713C93.2886 20.1865 92.8853 21.1602 92.1675 21.878C91.4496 22.5959 90.476 22.9992 89.4608 22.9992Z" fill="#090E36"/>
<path d="M11.3894 5.27861L0.974027 0.0703223C0.871915 0.0194905 0.758532 -0.00447647 0.644585 0.000688344C0.530637 0.00585316 0.419894 0.0399758 0.322799 0.0998369C0.225704 0.159698 0.145463 0.243321 0.0896665 0.342808C0.0338702 0.442294 0.00435639 0.554363 0.00390625 0.668426V10.969L11.3894 5.27861Z" fill="#090E36"/>
<path d="M4.24295 28.5807C4.24286 28.4652 4.21328 28.3517 4.157 28.2508C4.10073 28.1499 4.01962 28.0651 3.92138 28.0044C3.82314 27.9436 3.71101 27.909 3.59562 27.9037C3.48024 27.8984 3.36542 27.9227 3.26206 27.9743L0 29.6047V37.331C0.00034935 37.4452 0.029846 37.5575 0.0857055 37.6571C0.141565 37.7567 0.221936 37.8405 0.319203 37.9004C0.41647 37.9603 0.527419 37.9943 0.641536 37.9994C0.755654 38.0044 0.86916 37.9802 0.971317 37.9291L4.24175 36.2951L4.24295 28.5807Z" fill="#090E36"/>
<path d="M37.6291 18.3986L30.0212 14.5947L20.3762 19.4166C20.269 19.469 20.1787 19.5503 20.1152 19.6513C20.0518 19.7524 20.0179 19.8691 20.0173 19.9884V28.4049L37.6231 19.6008C37.7335 19.5447 37.8261 19.4591 37.8909 19.3535C37.9556 19.248 37.9899 19.1265 37.9899 19.0027C37.9899 18.8789 37.9556 18.7575 37.8909 18.6519C37.8261 18.5464 37.7335 18.4608 37.6231 18.4046" fill="#090E36"/>
</svg>
