<svg width="131" height="32" viewBox="0 0 131 32" fill="none" xmlns="http://www.w3.org/2000/svg">
<g clip-path="url(#clip0)">
<path d="M49.3933 16.2504C49.3933 12.2163 48.2477 10.144 45.9566 10.0334C45.0449 9.99198 44.154 10.137 43.287 10.4721C42.5956 10.7207 42.1312 10.966 41.8869 11.2146V20.844C43.3524 21.7662 44.6528 22.1979 45.788 22.1288C48.1892 21.97 49.3933 20.0116 49.3933 16.2504ZM52.2211 16.4196C52.2211 18.4678 51.7429 20.1705 50.7796 21.521C49.7063 23.051 48.2202 23.842 46.3178 23.8834C44.8833 23.9283 43.4074 23.4793 41.8869 22.5329V31.285L39.4307 30.4043V10.9798C39.8332 10.4824 40.3526 10.0576 40.9822 9.69495C42.4442 8.83839 44.2228 8.39975 46.3144 8.37903L46.3488 8.41357C48.2615 8.38939 49.7338 9.17687 50.7693 10.776C51.736 12.2404 52.2211 14.1193 52.2211 16.4196Z" fill="#A1C616"/>
<path d="M67.2407 22.1634C67.2407 24.9127 66.9655 26.8158 66.4185 27.8726C65.8681 28.9295 64.8188 29.7757 63.2708 30.4043C62.0151 30.9017 60.6563 31.1711 59.2011 31.216L58.7952 29.6617C60.2779 29.458 61.3202 29.2576 61.9257 29.0539C63.116 28.6498 63.9347 28.0281 64.3819 27.1957C64.7431 26.5187 64.9186 25.2235 64.9186 23.3101V22.6677C63.2364 23.4344 61.475 23.8144 59.6346 23.8144C58.4236 23.8144 57.3572 23.4344 56.4387 22.6677C55.4066 21.8318 54.8906 20.775 54.8906 19.4936V9.22181L57.3469 8.37561V18.713C57.3469 19.8182 57.7012 20.6679 58.4133 21.2654C59.122 21.8629 60.0439 22.1496 61.1689 22.1254C62.2972 22.1012 63.5047 21.6626 64.7844 20.806V8.75208H67.2407V22.1634Z" fill="#A1C616"/>
<path d="M76.8384 23.7487C76.546 23.7729 76.2776 23.7832 76.0299 23.7832C74.6401 23.7832 73.5565 23.4517 72.7825 22.7851C72.0119 22.1185 71.6231 21.1963 71.6231 20.022V10.3028H69.9409V8.75204H71.6231V4.62813L74.0794 3.75085V8.75204H76.8418V10.3028H74.0794V19.9564C74.0794 20.882 74.3271 21.5382 74.8225 21.9216C75.249 22.2359 75.9233 22.419 76.8418 22.4639V23.7487H76.8384Z" fill="#A1C616"/>
<path d="M91.7207 23.545H89.2644V14.0227C89.2644 13.0521 89.0374 12.2198 88.5902 11.5221C88.0707 10.7346 87.3517 10.3409 86.4263 10.3409C85.298 10.3409 83.891 10.9384 82.1984 12.13V23.5484H79.7422V0.777118L82.195 0V10.3719C83.7671 9.22526 85.4803 8.64846 87.3449 8.64846C88.6452 8.64846 89.7013 9.0871 90.5063 9.96784C91.3148 10.8451 91.7172 11.94 91.7172 13.2455V23.545H91.7207Z" fill="#A1C616"/>
<path d="M104.783 15.8636C104.783 14.3128 104.491 13.0349 103.906 12.0229C103.211 10.7899 102.134 10.1371 100.675 10.0715C97.9818 10.2269 96.6367 12.1679 96.6367 15.8808C96.6367 17.5836 96.9154 19.0066 97.483 20.1498C98.202 21.6039 99.2856 22.3223 100.727 22.2981C103.431 22.2739 104.783 20.1325 104.783 15.8636ZM107.477 15.8774C107.477 18.0844 106.916 19.9184 105.794 21.3863C104.559 23.0269 102.856 23.8523 100.679 23.8523C98.5219 23.8523 96.8397 23.0303 95.6288 21.3863C94.5279 19.9219 93.981 18.0844 93.981 15.8774C93.981 13.8051 94.5761 12.0609 95.7629 10.6379C97.0186 9.132 98.6698 8.37561 100.71 8.37561C102.75 8.37561 104.411 9.132 105.695 10.6379C106.881 12.0609 107.477 13.8051 107.477 15.8774Z" fill="#A1C616"/>
<path d="M121.567 23.5449H119.111V13.4804C119.111 12.3751 118.781 11.5151 118.12 10.8934C117.46 10.2752 116.576 9.97471 115.478 9.99889C114.312 10.0196 113.201 10.403 112.145 11.1456V23.5449H109.688V10.8416C111.102 9.80893 112.406 9.13197 113.593 8.81767C114.715 8.52409 115.705 8.37903 116.558 8.37903C117.143 8.37903 117.69 8.43429 118.206 8.54827C119.173 8.77277 119.957 9.18723 120.563 9.79856C121.237 10.4721 121.574 11.2837 121.574 12.2301V23.5449H121.567Z" fill="#A1C616"/>
<path d="M15.1537 0.87034C13.8878 0.877248 12.6803 0.984317 11.6173 1.17428C8.48678 1.7269 7.91916 2.88739 7.91916 5.03224V7.8644H15.3154V8.80731H7.91916H5.14297C2.99289 8.80731 1.11115 10.106 0.522884 12.572C-0.154821 15.4007 -0.185782 17.1656 0.522884 20.1221C1.04922 22.3223 2.30487 23.8869 4.45495 23.8869H6.9972V20.4917C6.9972 18.0395 9.10944 15.8774 11.6173 15.8774H19.0067C21.0639 15.8774 22.7048 14.1781 22.7048 12.1023V5.03224C22.7048 3.01864 21.0123 1.50585 19.0067 1.17083C17.7373 0.96014 16.4163 0.863432 15.1537 0.87034ZM11.1529 3.14643C11.9166 3.14643 12.5427 3.78194 12.5427 4.56597C12.5427 5.34654 11.92 5.9786 11.1529 5.9786C10.3857 5.9786 9.76306 5.34654 9.76306 4.56597C9.76306 3.78194 10.3857 3.14643 11.1529 3.14643Z" fill="#A1C616"/>
<path d="M23.6268 8.80737V12.1058C23.6268 14.6617 21.4664 16.8134 19.0067 16.8134H11.6173C9.59453 16.8134 7.91919 18.5542 7.91919 20.5885V27.662C7.91919 29.6756 9.66333 30.8603 11.6173 31.4371C13.9601 32.1278 16.203 32.2522 19.0067 31.4371C20.8678 30.8948 22.7049 29.8034 22.7049 27.662V24.8298H15.3155V23.8869H22.7049H26.403C28.5531 23.8869 29.3546 22.381 30.1011 20.1222C30.8751 17.7943 30.8407 15.5597 30.1011 12.5721C29.5713 10.4238 28.5565 8.80737 26.403 8.80737H23.6268ZM19.4711 26.7156C20.2383 26.7156 20.8609 27.3477 20.8609 28.1248C20.8609 28.9088 20.2383 29.5443 19.4711 29.5443C18.7074 29.5443 18.0813 28.9088 18.0813 28.1248C18.0848 27.3477 18.7074 26.7156 19.4711 26.7156Z" fill="#A1C616"/>
<path d="M126.356 6.55197H126.786V3.83724H127.807V3.51257H125.334V3.83724H126.356V6.55197ZM128.189 6.55197H128.557V4.0721L129.355 6.54852H129.765L130.597 4.07901V6.54852H131V3.51257H130.47L129.562 6.11333L128.784 3.51257H128.189V6.55197Z" fill="#A1C616"/>
</g>
<defs>
<clipPath id="clip0">
<rect width="131" height="32" fill="white"/>
</clipPath>
</defs>
</svg>
